<svg xmlns="http://www.w3.org/2000/svg">
   <symbol id="headphones" viewBox="0 0 40 38" fill="none">
      <path
         d="M20 0C13.1438 0 7.39375 4.825 5.95 11.25C6.09688 11.2344 6.25 11.2 6.4 11.2C6.80938 11.2 7.20312 11.2844 7.575 11.4C8.93125 5.79062 13.9781 1.6 20 1.6C26.0188 1.6 31.0688 5.79062 32.425 11.4C32.7969 11.2844 33.1875 11.2 33.6 11.2C33.75 11.2 33.9031 11.2344 34.05 11.25C32.6063 4.825 26.8531 0 20 0ZM6.4 12.8C5.07812 12.8 4 13.8781 4 15.2V27.2C4 28.5219 5.07812 29.6 6.4 29.6C7.72188 29.6 8.8 28.5219 8.8 27.2V15.2C8.8 13.8781 7.72188 12.8 6.4 12.8ZM33.6 12.8C32.2781 12.8 31.2 13.8781 31.2 15.2V27.2C31.2 28.5219 32.2781 29.6 33.6 29.6C34.9219 29.6 36 28.5219 36 27.2V15.2C36 13.8781 34.9219 12.8 33.6 12.8ZM2.4 15.3C0.95625 16.4594 0 18.6344 0 21.2C0 23.7656 0.95625 25.9406 2.4 27.1V15.3ZM37.6 15.3V27.1C39.0438 25.9406 40 23.7656 40 21.2C40 18.6344 39.0438 16.4594 37.6 15.3ZM32.475 31.025C31.7688 33.1969 29.9344 34.4 27.2 34.4H26.325C26.3781 34.6594 26.4 34.925 26.4 35.2C26.4 35.475 26.3781 35.7406 26.325 36H27.2C30.7938 36 33.2812 34.1937 34.1 31.15C33.9313 31.1719 33.7719 31.2 33.6 31.2C33.2062 31.2 32.8344 31.1312 32.475 31.025ZM18.4 32.8C17.0781 32.8 16 33.8781 16 35.2C16 36.5219 17.0781 37.6 18.4 37.6H22.4C23.7219 37.6 24.8 36.5219 24.8 35.2C24.8 33.8781 23.7219 32.8 22.4 32.8H18.4Z"
         fill="white" />
   </symbol>
   <symbol id="arrow-top" viewBox="0 0 15 30" fill="none">
      <path
         d="M8.07136 0.292892C7.68084 -0.0976315 7.04767 -0.0976314 6.65715 0.292892L0.293189 6.65685C-0.0973354 7.04738 -0.0973354 7.68054 0.293189 8.07107C0.683713 8.46159 1.31688 8.46159 1.7074 8.07107L7.36426 2.41421L13.0211 8.07107C13.4116 8.46159 14.0448 8.46159 14.4353 8.07107C14.8258 7.68054 14.8258 7.04738 14.4353 6.65685L8.07136 0.292892ZM8.36426 30L8.36426 1L6.36426 1L6.36426 30L8.36426 30Z"
         fill="white" />
   </symbol>
   <symbol id="phone" width="25" height="25" viewBox="0 0 25 25" fill="none">
      <path
         d="M5.91953 1.49415C5.53477 1.4629 5.10703 1.57423 4.7125 1.85157C4.36485 2.09376 3.61485 2.68946 2.91367 3.36329C2.56406 3.69923 2.23008 4.04884 1.97227 4.39259C1.7125 4.73634 1.48594 5.05079 1.49961 5.50782C1.51328 5.91798 1.5543 7.13087 2.42735 8.99024C3.30039 10.8477 4.99375 13.3965 8.29649 16.7012C11.6012 20.0059 14.15 21.6992 16.0074 22.5723C17.8648 23.4453 19.0797 23.4863 19.4898 23.5C19.9449 23.5137 20.2594 23.2871 20.6031 23.0274C20.9469 22.7676 21.2965 22.4356 21.6324 22.0859C22.3043 21.3848 22.9 20.6348 23.1422 20.2871C23.6949 19.5 23.6031 18.5703 22.9879 18.1387C22.6012 17.8672 19.0445 15.5 18.5094 15.1719C17.9664 14.8399 17.3414 14.9902 16.7828 15.2852C16.3434 15.5176 15.1539 16.1992 14.8141 16.3945C14.5582 16.2324 13.5875 15.5859 11.4996 13.4981C9.40977 11.4102 8.76524 10.4395 8.60313 10.1836C8.79844 9.84376 9.47813 8.66017 9.7125 8.2129C10.0055 7.65626 10.1695 7.0254 9.81992 6.47853C9.67344 6.2461 9.00742 5.23243 8.33555 4.21485C7.66172 3.19728 7.02305 2.23243 6.85703 2.00196V2.00001C6.64024 1.70118 6.30235 1.5254 5.91953 1.49415ZM5.82774 2.51564C5.96446 2.53321 6.04649 2.5879 6.04649 2.5879C6.12656 2.69923 6.82774 3.75001 7.49961 4.76564C8.17149 5.78321 8.85703 6.82618 8.97617 7.01564C8.99571 7.04493 9.02305 7.37696 8.82774 7.7461V7.74806C8.60703 8.16798 7.57774 9.96681 7.57774 9.96681L7.43516 10.2188L7.58164 10.4688C7.58164 10.4688 8.34922 11.7637 10.7906 14.2051C13.234 16.6465 14.5289 17.416 14.5289 17.416L14.7789 17.5625L15.0309 17.4199C15.0309 17.4199 16.8258 16.3926 17.2496 16.1699C17.6188 15.9766 17.9508 16.002 17.9898 16.0254C18.3356 16.2383 22.1773 18.791 22.4137 18.957C22.4215 18.9629 22.6305 19.2793 22.3258 19.7129H22.3238C22.1402 19.9766 21.5387 20.7402 20.9117 21.3926C20.5973 21.7188 20.275 22.0234 20.0016 22.2285C19.7281 22.4336 19.484 22.4981 19.5231 22.5C19.0973 22.4863 18.1578 22.4766 16.4332 21.666C14.7086 20.8574 12.2477 19.2383 9.00352 15.9922C5.76133 12.75 4.14219 10.2891 3.33164 8.56251C2.52305 6.8379 2.51328 5.89845 2.49961 5.47462C2.50156 5.51368 2.56602 5.26759 2.7711 4.99415C2.97617 4.72071 3.27891 4.39649 3.60508 4.08204C4.25938 3.45509 5.0211 2.85353 5.28477 2.66993V2.67189C5.50156 2.51954 5.69102 2.50001 5.82774 2.51564Z"
         fill="url(#paint0_linear_177_1726)" />
      <defs>
         <linearGradient id="paint0_linear_177_1726" x1="12.5034" y1="1.48904" x2="12.5034" y2="23.5006"
            gradientUnits="userSpaceOnUse">
            <stop stop-color="#4ABCEC" />
            <stop offset="1" stop-color="#4A8BEC" />
         </linearGradient>
      </defs>
   </symbol>
   <symbol id="circle" viewBox="0 0 30 30" fill="none">
      <g filter="url(#filter0_d_177_1732)">
         <circle cx="15" cy="11" r="5" fill="#4ABCEC" />
      </g>
      <defs>
         <filter id="filter0_d_177_1732" x="0" y="0" width="30" height="30" filterUnits="userSpaceOnUse"
            color-interpolation-filters="sRGB">
            <feFlood flood-opacity="0" result="BackgroundImageFix" />
            <feColorMatrix in="SourceAlpha" type="matrix" values="0 0 0 0 0 0 0 0 0 0 0 0 0 0 0 0 0 0 127 0"
               result="hardAlpha" />
            <feOffset dy="4" />
            <feGaussianBlur stdDeviation="5" />
            <feComposite in2="hardAlpha" operator="out" />
            <feColorMatrix type="matrix" values="0 0 0 0 0.290196 0 0 0 0 0.849255 0 0 0 0 0.92549 0 0 0 0.75 0" />
            <feBlend mode="normal" in2="BackgroundImageFix" result="effect1_dropShadow_177_1732" />
            <feBlend mode="normal" in="SourceGraphic" in2="effect1_dropShadow_177_1732" result="shape" />
         </filter>
      </defs>
   </symbol>
   <symbol id="arrow" viewBox="0 0 22 12" fill="none">
      <path
         d="M0.219669 4.99262C-0.0732231 5.28551 -0.0732231 5.76039 0.219669 6.05328L4.99264 10.8263C5.28553 11.1191 5.76041 11.1191 6.0533 10.8263C6.34619 10.5334 6.34619 10.0585 6.0533 9.76559L1.81066 5.52295L6.0533 1.28031C6.34619 0.987415 6.34619 0.512542 6.0533 0.219648C5.76041 -0.073245 5.28553 -0.073245 4.99264 0.219648L0.219669 4.99262ZM21.75 5.52295V4.77295L0.75 4.77295V5.52295V6.27295L21.75 6.27295V5.52295Z"
         fill="white" />
   </symbol>
   <symbol id="email" viewBox="0 0 25 18" fill="none">
      <path
         d="M0 0V0.5V18H25V0H0ZM1 1H24V2.28125C23.7774 2.47479 14.9085 10.1857 14.1729 10.8232C13.5269 11.3831 12.8391 11.501 12.5 11.501C12.1609 11.501 11.4731 11.3831 10.8271 10.8232C10.6417 10.6625 9.31134 9.50583 8.34961 8.66992L8.33984 8.65723L8.33789 8.65918C5.48222 6.1771 1.1662 2.42576 1 2.28125V1ZM1 3.60254C1.87369 4.36228 4.92064 7.01119 7.54102 9.28906L1 14.457V3.60254ZM24 3.60254V14.459L17.4453 9.30078C20.0643 7.02411 23.1245 4.36386 24 3.60254ZM8.30859 9.95703C8.92647 10.4941 10.0314 11.4546 10.1729 11.5771C11.0269 12.3173 11.9391 12.499 12.5 12.499C13.0609 12.499 13.9731 12.3173 14.8271 11.5771C14.9675 11.4555 16.0663 10.4993 16.6768 9.96875L24 15.7324V17H1V15.7324L8.30859 9.95703Z"
         fill="url(#paint0_linear_177_2236)" />
      <defs>
         <linearGradient id="paint0_linear_177_2236" x1="12.5" y1="0" x2="12.5" y2="18" gradientUnits="userSpaceOnUse">
            <stop stop-color="#4ABCEC" />
            <stop offset="1" stop-color="#4A8BEC" />
         </linearGradient>
      </defs>
   </symbol>
   <symbol id="facebook" viewBox="0 0 11 20" fill="none">
      <path
         d="M10.525 7.00006H7V5.00006C7 3.96806 7.084 3.31806 8.563 3.31806H10.431V0.138063C9.522 0.0440625 8.608 -0.0019375 7.693 6.25e-05C4.98 6.25e-05 3 1.65706 3 4.69906V7.00006H0V11.0001L3 10.9991V20.0001H7V10.9971L10.066 10.9961L10.525 7.00006Z"
         fill="url(#paint0_linear_177_2241)" />
      <defs>
         <linearGradient id="paint0_linear_177_2241" x1="11.8744" y1="5.7195e-07" x2="-5.54283" y2="8.12053"
            gradientUnits="userSpaceOnUse">
            <stop offset="0.25" stop-color="#3B768F" />
            <stop offset="0.536458" stop-color="#3EC6FF" />
            <stop offset="0.817708" stop-color="#3B768F" />
         </linearGradient>
      </defs>
   </symbol>
   <symbol id="messenger" viewBox="0 0 24 25" fill="none">
      <path
         d="M12 0C5.373 0 0 5.149 0 11.5C0 14.9012 1.55067 17.9472 4 20.0527V25L8.83594 22.582C9.84552 22.8463 10.903 23 12 23C18.627 23 24 17.851 24 11.5C24 5.149 18.627 0 12 0ZM10.8613 8.35742L13.8125 11.3125L19.084 8.35742L13.1387 14.8008L10.2559 11.7031L4.8457 14.7305L10.8613 8.35742Z"
         fill="url(#paint0_linear_177_2243)" />
      <defs>
         <linearGradient id="paint0_linear_177_2243" x1="27.0769" y1="7.14935e-07" x2="-0.977922" y2="23.8613"
            gradientUnits="userSpaceOnUse">
            <stop offset="0.25" stop-color="#3B768F" />
            <stop offset="0.536458" stop-color="#3EC6FF" />
            <stop offset="0.817708" stop-color="#3B768F" />
         </linearGradient>
      </defs>
   </symbol>
   <symbol id="youtube" viewBox="0 0 22 26" fill="none">
      <path
         d="M4.2502 0L6.03145 5.84375V9.65625H7.53145V5.65625L9.2502 0H7.7502L6.8127 3.84375H6.71895L5.7502 0H4.2502ZM11.1564 2.34375C10.5549 2.34375 10.0744 2.51562 9.71895 2.84375C9.36348 3.16797 9.1877 3.60547 9.1877 4.15625V7.84375C9.1877 8.44922 9.37129 8.95703 9.71895 9.3125C10.0705 9.67188 10.5119 9.84375 11.0939 9.84375C11.6955 9.84375 12.1877 9.66016 12.5314 9.3125C12.8752 8.96484 13.0314 8.48438 13.0314 7.875V4.1875C13.0314 3.64453 12.8518 3.21875 12.5002 2.875C12.1525 2.52734 11.7072 2.34375 11.1564 2.34375ZM14.1564 2.53125V8.5C14.1564 8.92578 14.2502 9.22656 14.4064 9.4375C14.5627 9.64844 14.7893 9.75 15.0939 9.75C15.34 9.75 15.5822 9.67969 15.8439 9.53125C16.1096 9.37891 16.383 9.16406 16.6252 8.875V9.65625H17.9377V2.53125H16.6252V7.9375C16.5002 8.08984 16.3674 8.21484 16.2189 8.3125C16.0705 8.41406 15.9416 8.46875 15.8439 8.46875C15.7229 8.46875 15.6174 8.44922 15.5627 8.375C15.5041 8.30078 15.5002 8.16406 15.5002 8V2.53125H14.1564ZM11.0939 3.59375C11.2697 3.59375 11.426 3.625 11.5314 3.71875C11.6408 3.81641 11.6877 3.94141 11.6877 4.09375V8C11.6877 8.19141 11.6369 8.33203 11.5314 8.4375C11.426 8.54688 11.2736 8.59375 11.0939 8.59375C10.9182 8.59375 10.7814 8.54297 10.6877 8.4375C10.59 8.33203 10.5627 8.19531 10.5627 8V4.09375C10.5627 3.94141 10.6174 3.81641 10.7189 3.71875C10.8205 3.625 10.9338 3.59375 11.0939 3.59375ZM10.9377 11.125C8.34395 11.1211 5.80098 11.1445 3.3127 11.25C1.57441 11.25 0.156446 12.6523 0.156446 14.375C0.0509766 15.7383 -0.00371042 17.1055 0.00019558 18.4688C-0.00371042 19.832 0.0509766 21.1992 0.156446 22.5625C0.156446 24.2852 1.57441 25.6875 3.3127 25.6875C5.80098 25.7891 8.34395 25.8164 10.9377 25.8125C13.5354 25.8203 16.0783 25.7891 18.5627 25.6875C20.301 25.6875 21.7189 24.2852 21.7189 22.5625C21.8244 21.1992 21.8791 19.832 21.8752 18.4688C21.883 17.1055 21.8244 15.7383 21.7189 14.375C21.7189 12.6523 20.301 11.25 18.5627 11.25C16.0783 11.1445 13.5354 11.1211 10.9377 11.125ZM1.6877 13.3438H6.28145C6.36348 13.3438 6.4377 13.418 6.4377 13.5V14.9062C6.4377 14.9883 6.36348 15.0625 6.28145 15.0625H4.8752V23.1562C4.8752 23.2383 4.83223 23.3125 4.7502 23.3125H3.2502C3.16816 23.3125 3.09395 23.2383 3.09395 23.1562V15.0625H1.6877C1.60566 15.0625 1.5627 14.9883 1.5627 14.9062V13.5C1.5627 13.418 1.60566 13.3438 1.6877 13.3438ZM11.3439 13.3438H12.6877C12.7697 13.3438 12.8439 13.418 12.8439 13.5V16.2188C12.9533 16.1172 13.0705 16.0352 13.1877 15.9688C13.4143 15.8438 13.6447 15.7812 13.8752 15.7812C14.3439 15.7812 14.6877 15.9688 14.9377 16.3125C15.176 16.6445 15.3127 17.1094 15.3127 17.7188V21.6875C15.3127 22.2266 15.1994 22.6445 14.9689 22.9375C14.7307 23.2422 14.3752 23.4062 13.9377 23.4062C13.6604 23.4062 13.4143 23.332 13.1877 23.2188C13.0666 23.1562 12.9533 23.0977 12.8439 23V23.1562C12.8439 23.2383 12.7697 23.3125 12.6877 23.3125H11.3439C11.2619 23.3125 11.1877 23.2383 11.1877 23.1562V13.5C11.1877 13.418 11.2619 13.3438 11.3439 13.3438ZM18.1564 15.6875C18.8049 15.6875 19.3361 15.8906 19.6877 16.2812C20.0393 16.6719 20.2189 17.2266 20.2189 17.9375V19.7812C20.2189 19.8633 20.1447 19.9062 20.0627 19.9062H17.6877V21.125C17.6877 21.5625 17.7346 21.7344 17.7814 21.8125C17.8205 21.875 17.8869 21.9688 18.0939 21.9688C18.2619 21.9688 18.3791 21.9219 18.4377 21.8438C18.465 21.8008 18.5314 21.6445 18.5314 21.125V20.625C18.5314 20.543 18.6057 20.4688 18.6877 20.4688H20.0627C20.1447 20.4688 20.2189 20.543 20.2189 20.625V21.1562C20.2189 21.9258 20.0119 22.5117 19.6564 22.9062C19.301 23.3047 18.7658 23.5 18.0627 23.5C17.426 23.5 16.9299 23.3008 16.5627 22.875C16.1994 22.457 16.0002 21.8789 16.0002 21.1562V17.9375C16.0002 17.2812 16.1916 16.7617 16.5939 16.3438C16.9963 15.9258 17.5236 15.6875 18.1564 15.6875ZM6.28145 15.875H7.59395C7.67598 15.875 7.7502 15.9492 7.7502 16.0312V21.5C7.7502 21.6797 7.76191 21.7539 7.78145 21.7812C7.78926 21.793 7.82441 21.8438 7.9377 21.8438C7.97676 21.8438 8.0627 21.8281 8.21895 21.7188C8.34785 21.6328 8.46113 21.5273 8.5627 21.4062V16.0312C8.5627 15.9492 8.63691 15.875 8.71895 15.875H10.0627C10.1447 15.875 10.1877 15.9492 10.1877 16.0312V23.1562C10.1877 23.2383 10.1447 23.3125 10.0627 23.3125H8.71895C8.63691 23.3125 8.5627 23.2383 8.5627 23.1562V22.75C8.38691 22.9219 8.21504 23.0508 8.03145 23.1562C7.74238 23.3203 7.46895 23.4062 7.1877 23.4062C6.83223 23.4062 6.55879 23.2852 6.3752 23.0312C6.19941 22.793 6.1252 22.4531 6.1252 22V16.0312C6.1252 15.9492 6.19941 15.875 6.28145 15.875ZM13.1877 17.2188C13.1369 17.2266 13.0861 17.2539 13.0314 17.2812C12.9689 17.3125 12.9064 17.3711 12.8439 17.4375V21.75C12.9221 21.832 12.9885 21.9023 13.0627 21.9375C13.1447 21.9766 13.2229 22 13.3127 22C13.4807 22 13.5471 21.9297 13.5627 21.9062C13.6018 21.8555 13.6252 21.7383 13.6252 21.5V17.8125C13.6252 17.6094 13.6057 17.4414 13.5314 17.3438C13.4572 17.2461 13.34 17.1914 13.1877 17.2188ZM18.1252 17.25C17.965 17.25 17.8479 17.2852 17.7814 17.375C17.7346 17.4414 17.6877 17.6055 17.6877 17.9375V18.5H18.5314V17.9375C18.5314 17.6094 18.4885 17.4492 18.4377 17.375C18.3752 17.2891 18.2775 17.25 18.1252 17.25Z"
         fill="url(#paint0_linear_177_2245)" />
      <defs>
         <linearGradient id="paint0_linear_177_2245" x1="24.6805" y1="7.38204e-07" x2="-3.50251" y2="21.1602"
            gradientUnits="userSpaceOnUse">
            <stop offset="0.25" stop-color="#3B768F" />
            <stop offset="0.536458" stop-color="#3EC6FF" />
            <stop offset="0.817708" stop-color="#3B768F" />
         </linearGradient>
      </defs>
   </symbol>
   <symbol id="whatsapp" viewBox="0 0 24 24" fill="none">
      <path
         d="M12 0C5.373 0 0 5.373 0 12C0 14.2512 0.632342 16.3501 1.71094 18.1504L0.107422 24L6.08203 22.4316C7.82935 23.4251 9.84649 24 12 24C18.627 24 24 18.627 24 12C24 5.373 18.627 0 12 0ZM7.89258 6.40234C8.08758 6.40234 8.28794 6.40116 8.46094 6.41016C8.67494 6.41516 8.90786 6.43083 9.13086 6.92383C9.39586 7.50983 9.97287 8.97991 10.0469 9.12891C10.1209 9.27791 10.1733 9.45344 10.0703 9.64844C9.97231 9.84844 9.92134 9.96948 9.77734 10.1465C9.62834 10.3185 9.46508 10.5321 9.33008 10.6621C9.18108 10.8111 9.02722 10.9745 9.19922 11.2715C9.37122 11.5685 9.96856 12.5421 10.8516 13.3281C11.9866 14.3421 12.9442 14.6537 13.2422 14.8027C13.5402 14.9517 13.7128 14.9285 13.8848 14.7285C14.0618 14.5335 14.6281 13.8644 14.8281 13.5664C15.0231 13.2684 15.2222 13.32 15.4922 13.418C15.7662 13.516 17.2274 14.2358 17.5254 14.3848C17.8234 14.5338 18.0187 14.6075 18.0938 14.7285C18.1707 14.8535 18.1708 15.4486 17.9238 16.1426C17.6768 16.8356 16.4639 17.5057 15.9199 17.5527C15.3709 17.6037 14.8586 17.7995 12.3516 16.8125C9.32756 15.6215 7.42048 12.5242 7.27148 12.3242C7.12248 12.1292 6.06055 10.7139 6.06055 9.25391C6.06055 7.78891 6.82866 7.07144 7.09766 6.77344C7.37166 6.47544 7.69258 6.40234 7.89258 6.40234Z"
         fill="url(#paint0_linear_177_2247)" />
      <defs>
         <linearGradient id="paint0_linear_177_2247" x1="27.0769" y1="6.86338e-07" x2="-0.0106818" y2="23.9986"
            gradientUnits="userSpaceOnUse">
            <stop offset="0.25" stop-color="#3B768F" />
            <stop offset="0.536458" stop-color="#3EC6FF" />
            <stop offset="0.817708" stop-color="#3B768F" />
         </linearGradient>
      </defs>
   </symbol>
   <symbol id="talk" viewBox="0 0 26 25" fill="none">
      <path
         d="M13 0C5.82 0 0 5.03342 0 11.2421C0 13.9772 1.13222 16.4811 3.00977 18.4302C3.04768 18.5266 4.01101 21.0603 1.1582 23.644C1.10823 23.6919 1.06841 23.7497 1.04119 23.8139C1.01398 23.8781 0.999959 23.9473 1 24.0173C1 24.1528 1.05268 24.2828 1.14645 24.3786C1.24021 24.4745 1.36739 24.5283 1.5 24.5283C1.53613 24.5283 1.57214 24.5243 1.60742 24.5163C4.48328 24.3422 6.94346 22.8836 8.44531 21.7597C9.86471 22.2197 11.3948 22.4843 13 22.4843C20.18 22.4843 26 17.4509 26 11.2421C26 5.03342 20.18 0 13 0Z"
         fill="url(#paint0_linear_177_2256)" />
      <defs>
         <linearGradient id="paint0_linear_177_2256" x1="29.3333" y1="7.01447e-07" x2="1.50119" y2="26.1377"
            gradientUnits="userSpaceOnUse">
            <stop offset="0.25" stop-color="#3B768F" />
            <stop offset="0.536458" stop-color="#3EC6FF" />
            <stop offset="0.817708" stop-color="#3B768F" />
         </linearGradient>
      </defs>
   </symbol>
   <symbol id="cross" viewBox="0 0 21 21" fill="none">
      <path d="M1.18187 1.06065L19.1819 19.0607M19.0605 1.06065L1.06055 19.0607" stroke="#00E0FF" stroke-width="3" />
   </symbol>
</svg>