<svg xmlns="http://www.w3.org/2000/svg">
   <symbol id="man" viewBox="0 0 40 42" fill="none">
      <path
         d="M22.0938 0C12.2227 0 8.66406 7.56641 11.5 13.9688C11.1836 14.1797 10.5508 14.8984 10.6562 16.1562C10.9727 18.4688 11.9141 19.125 12.4375 19.125C12.6484 21.3281 14.1094 23.832 14.8438 24.25C14.8438 25.8242 14.9609 25.5078 14.75 27.1875C14.5625 27.7656 14.2266 28.2773 13.7812 28.7188L19.0938 31H20.9062L26.2188 28.875C25.7344 28.4219 25.3633 27.8867 25.1562 27.2812C25.0508 25.6016 25.0312 25.8438 25.0312 24.375C25.7656 23.9531 27.1523 21.3203 27.4688 19.2188C28.0977 19.2188 29.0391 18.5898 29.25 16.2812C29.3555 15.0195 28.9336 14.168 28.4062 14.0625C30.2969 11.6484 29.9805 2.09375 23.1562 2.09375L22.0938 0ZM11.8438 30.0625C7.47266 32.3672 0 33.4375 0 41C0 41 0 42 1 42H17L19 35L18.0938 32.75L11.8438 30.0625ZM28.25 30.2188L21.9062 32.75L21 35L23 42H39C40.0312 42 40 41 40 41C40 33.5234 32.6758 32.4375 28.25 30.2188Z"
         fill="url(#paint0_linear_177_1781)" />
      <defs>
         <linearGradient id="paint0_linear_177_1781" x1="45.1283" y1="1.20109e-06" x2="-1.94214" y2="39.717"
            gradientUnits="userSpaceOnUse">
            <stop offset="0.25" stop-color="#3B768F" />
            <stop offset="0.536458" stop-color="#3EC6FF" />
            <stop offset="0.817708" stop-color="#3B768F" />
         </linearGradient>
      </defs>
   </symbol>
   <symbol id="squares" viewBox="0 0 44 44" fill="none">
      <path
         d="M3 0C1.346 0 0 1.346 0 3V13C0 14.654 1.346 16 3 16H6V18C5.99813 18.1325 6.02261 18.2641 6.07202 18.387C6.12143 18.51 6.1948 18.6219 6.28784 18.7163C6.38088 18.8107 6.49176 18.8856 6.61401 18.9368C6.73627 18.9879 6.86748 19.0142 7 19.0142C7.13252 19.0142 7.26373 18.9879 7.38599 18.9368C7.50824 18.8856 7.61912 18.8107 7.71216 18.7163C7.8052 18.6219 7.87857 18.51 7.92798 18.387C7.97739 18.2641 8.00187 18.1325 8 18V16H13C14.654 16 16 14.654 16 13V9H21C21.1325 9.00187 21.2641 8.97739 21.387 8.92798C21.51 8.87857 21.6219 8.8052 21.7163 8.71216C21.8107 8.61912 21.8856 8.50824 21.9368 8.38599C21.9879 8.26373 22.0142 8.13253 22.0142 8C22.0142 7.86748 21.9879 7.73627 21.9368 7.61401C21.8856 7.49176 21.8107 7.38088 21.7163 7.28784C21.6219 7.1948 21.51 7.12143 21.387 7.07202C21.2641 7.02261 21.1325 6.99813 21 7H16V3C16 1.346 14.654 0 13 0H3ZM31 0C29.346 0 28 1.346 28 3V7H25C24.8675 6.99813 24.7359 7.02261 24.613 7.07202C24.49 7.12143 24.3781 7.1948 24.2837 7.28784C24.1893 7.38088 24.1144 7.49176 24.0632 7.61401C24.0121 7.73627 23.9858 7.86748 23.9858 8C23.9858 8.13253 24.0121 8.26373 24.0632 8.38599C24.1144 8.50824 24.1893 8.61912 24.2837 8.71216C24.3781 8.8052 24.49 8.87857 24.613 8.92798C24.7359 8.97739 24.8675 9.00187 25 9H28V13C28 14.654 29.346 16 31 16H35V21C34.9981 21.1325 35.0226 21.2641 35.072 21.387C35.1214 21.51 35.1948 21.6219 35.2878 21.7163C35.3809 21.8107 35.4918 21.8856 35.614 21.9368C35.7363 21.9879 35.8675 22.0142 36 22.0142C36.1325 22.0142 36.2637 21.9879 36.386 21.9368C36.5082 21.8856 36.6191 21.8107 36.7122 21.7163C36.8052 21.6219 36.8786 21.51 36.928 21.387C36.9774 21.2641 37.0019 21.1325 37 21V16H41C42.654 16 44 14.654 44 13V3C44 1.346 42.654 0 41 0H31ZM6.98438 20.9863C6.7195 20.9905 6.46709 21.0995 6.28254 21.2896C6.09799 21.4796 5.99637 21.7351 6 22V28H3C1.346 28 0 29.346 0 31V41C0 42.654 1.346 44 3 44H13C14.654 44 16 42.654 16 41V37H19C19.1325 37.0019 19.2641 36.9774 19.387 36.928C19.51 36.8786 19.6219 36.8052 19.7163 36.7122C19.8107 36.6191 19.8856 36.5082 19.9368 36.386C19.9879 36.2637 20.0142 36.1325 20.0142 36C20.0142 35.8675 19.9879 35.7363 19.9368 35.614C19.8856 35.4918 19.8107 35.3809 19.7163 35.2878C19.6219 35.1948 19.51 35.1214 19.387 35.072C19.2641 35.0226 19.1325 34.9981 19 35H16V31C16 29.346 14.654 28 13 28H8V22C8.00183 21.8662 7.9768 21.7334 7.92638 21.6095C7.87597 21.4855 7.80119 21.373 7.70649 21.2784C7.61179 21.1839 7.49908 21.1094 7.37504 21.0592C7.25101 21.009 7.11816 20.9842 6.98438 20.9863ZM35.9844 23.9863C35.7195 23.9905 35.4671 24.0995 35.2825 24.2896C35.098 24.4796 34.9964 24.7351 35 25V27H31C29.346 27 28 28.346 28 30V35H23C22.8675 34.9981 22.7359 35.0226 22.613 35.072C22.49 35.1214 22.3781 35.1948 22.2837 35.2878C22.1893 35.3809 22.1144 35.4918 22.0632 35.614C22.0121 35.7363 21.9858 35.8675 21.9858 36C21.9858 36.1325 22.0121 36.2637 22.0632 36.386C22.1144 36.5082 22.1893 36.6191 22.2837 36.7122C22.3781 36.8052 22.49 36.8786 22.613 36.928C22.7359 36.9774 22.8675 37.0019 23 37H28V40C28 41.654 29.346 43 31 43H41C42.654 43 44 41.654 44 40V30C44 28.346 42.654 27 41 27H37V25C37.0018 24.8662 36.9768 24.7334 36.9264 24.6095C36.876 24.4855 36.8012 24.373 36.7065 24.2784C36.6118 24.1839 36.4991 24.1094 36.375 24.0592C36.251 24.009 36.1182 23.9842 35.9844 23.9863Z"
         fill="url(#paint0_linear_177_1787)" />
      <defs>
         <linearGradient id="paint0_linear_177_1787" x1="49.641" y1="1.25829e-06" x2="-0.0195832" y2="43.9975"
            gradientUnits="userSpaceOnUse">
            <stop offset="0.25" stop-color="#3B768F" />
            <stop offset="0.536458" stop-color="#3EC6FF" />
            <stop offset="0.817708" stop-color="#3B768F" />
         </linearGradient>
      </defs>
   </symbol>
   <symbol id="program" viewBox="0 0 42 42" fill="none">
      <path
         d="M1 0C0.45 0 0 0.45 0 1V11C0 11.55 0.45 12 1 12H41C41.55 12 42 11.55 42 11V1C42 0.45 41.55 0 41 0H1ZM6 5C6.55 5 7 5.45 7 6C7 6.55 6.55 7 6 7C5.45 7 5 6.55 5 6C5 5.45 5.45 5 6 5ZM10 5C10.55 5 11 5.45 11 6C11 6.55 10.55 7 10 7C9.45 7 9 6.55 9 6C9 5.45 9.45 5 10 5ZM14 5C14.55 5 15 5.45 15 6C15 6.55 14.55 7 14 7C13.45 7 13 6.55 13 6C13 5.45 13.45 5 14 5ZM0 15V41C2.65169e-05 41.2652 0.105392 41.5195 0.292922 41.7071C0.480453 41.8946 0.734792 42 1 42H41C41.2652 42 41.5195 41.8946 41.7071 41.7071C41.8946 41.5195 42 41.2652 42 41V15H40V40H2V15H0ZM6 15C5.448 15 5 15.447 5 16V36C5 36.553 5.448 37 6 37H19C19.552 37 20 36.553 20 36V16C20 15.447 19.552 15 19 15H6ZM23 15V17H37V15H23ZM23 20V22H37V20H23ZM23 25V27H37V25H23ZM23 30V32H37V30H23ZM23 35V37H37V35H23Z"
         fill="url(#paint0_linear_177_1793)" />
      <defs>
         <linearGradient id="paint0_linear_177_1793" x1="47.3846" y1="1.20109e-06" x2="-0.0186931" y2="41.9976"
            gradientUnits="userSpaceOnUse">
            <stop offset="0.25" stop-color="#3B768F" />
            <stop offset="0.536458" stop-color="#3EC6FF" />
            <stop offset="0.817708" stop-color="#3B768F" />
         </linearGradient>
      </defs>
   </symbol>
   <symbol id="notebook" viewBox="0 0 40 50" fill="none">
      <path
         d="M12 0C11.4492 0 11 0.449219 11 1V9C11 9.55078 11.4492 10 12 10H28C28.5547 10 29 9.55078 29 9V1C29 0.449219 28.5547 0 28 0H12ZM3 2C1.34766 2 0 3.34766 0 5V47C0 48.6523 1.34766 50 3 50H37C38.6523 50 40 48.6523 40 47V5C40 3.34766 38.6523 2 37 2H31V6H36V46H4V6H9V2H3ZM6 8V44H34V8H31V9C31 10.6523 29.6523 12 28 12H12C10.3477 12 9 10.6523 9 9V8H6ZM10 17H18V25H10V17ZM12 19V23H16V19H12ZM21 20H30V22H21V20ZM10 30H18V38H10V30ZM12 32V36H16V32H12ZM13 33H15V35H13V33ZM21 33H30V35H21V33Z"
         fill="url(#paint0_linear_177_1799)" />
      <defs>
         <linearGradient id="paint0_linear_177_1799" x1="45.1282" y1="1.42987e-06" x2="-8.50923" y2="38.0167"
            gradientUnits="userSpaceOnUse">
            <stop offset="0.25" stop-color="#3B768F" />
            <stop offset="0.536458" stop-color="#3EC6FF" />
            <stop offset="0.817708" stop-color="#3B768F" />
         </linearGradient>
      </defs>
   </symbol>
   <symbol id="mans" viewBox="0 0 50 38" fill="none">
      <path
         d="M26.9062 0C18.0391 0 14.7461 6.85156 17.2812 12.6562C16.9648 12.8672 16.457 13.5273 16.5625 14.6875C16.7734 16.7969 17.7227 17.3008 18.25 17.4062C18.4609 19.4102 19.7305 21.7461 20.4688 22.0625C20.4688 23.4336 20.4492 24.582 20.3438 26.0625C18.7266 30.3086 8.39062 29.3242 7.0625 36.9375C7.00391 37.2695 7.34766 38 8.03125 38H42C43.0156 38 42.9961 37.25 42.9375 36.9062C41.5859 29.3242 31.2734 30.3047 29.6562 26.0625C29.5508 24.4766 29.5312 23.4336 29.5312 22.0625C30.2695 21.7461 31.4453 19.3047 31.6562 17.4062C32.1836 17.4062 33.0273 16.7695 33.3438 14.6562C33.4492 13.4961 33.0156 12.7617 32.5938 12.6562C34.2812 10.5469 33.9766 1.90625 27.75 1.90625L26.9062 0ZM15.1562 5C8.48047 5.11328 5.55469 10.4258 7.5625 14.9688C7.34766 15.0742 6.92578 15.6328 7.03125 16.5938C7.24609 18.3047 7.88281 18.7188 8.3125 18.7188C8.52344 20.3203 9.46875 22.1172 10 22.4375C10 23.5039 10.0117 23.4727 9.90625 24.75C9.03906 27.4844 0 27.2812 0 34C0 34 0 35 1 35H5.53125C7.05859 30.6797 11.2109 29.0156 14.3438 27.7812C16.0703 27.1016 17.8398 26.4141 18.375 25.5625C18.4336 24.6328 18.4648 23.8438 18.4688 22.9688C17.5195 21.8828 16.8125 20.1914 16.4688 18.75C15.6562 18.1484 14.7773 16.9922 14.5625 14.8438C14.4688 13.8242 14.6836 12.9766 15.0312 12.3125C14.2383 9.84766 14.2891 7.27344 15.1562 5ZM38 5C37.043 5 35.9141 5.07812 34.8438 5.25C35.6445 7.59766 35.6758 10.4023 34.9688 12.4062C35.2812 13.0938 35.4258 13.9297 35.3438 14.8438L35.3125 14.9062V14.9688C35.0156 16.9336 34.293 18.1289 33.4375 18.7812C33.1133 20.1328 32.4531 21.8398 31.5312 22.9375C31.5352 23.7969 31.5664 24.5703 31.625 25.5625C32.1602 26.4141 33.9336 27.1016 35.6562 27.7812C38.7852 29.0117 42.9375 30.6797 44.4688 35H49C50 35 50 34.0312 50 34.0312C50.0039 26.2969 41.4414 28.1289 40.1562 24.5938C40.0469 23.4141 40.0312 23.5234 40.0312 22.3438C40.5664 22.0234 41.5508 20.2227 41.6562 18.7188C42.0859 18.7188 42.7227 18.2773 42.9375 16.5625C43.043 15.707 42.7266 15.0742 42.4062 14.9688C43.6953 13.2539 43.4844 6.5 38.6562 6.5L38 5Z"
         fill="url(#paint0_linear_177_1805)" />
      <defs>
         <linearGradient id="paint0_linear_177_1805" x1="56.4103" y1="1.0867e-06" x2="13.7099" y2="49.7776"
            gradientUnits="userSpaceOnUse">
            <stop offset="0.25" stop-color="#3B768F" />
            <stop offset="0.536458" stop-color="#3EC6FF" />
            <stop offset="0.817708" stop-color="#3B768F" />
         </linearGradient>
      </defs>
   </symbol>
   <symbol id="people" viewBox="0 0 50 50" fill="none">
      <path
         d="M49.9961 27.9258C49.7852 24.3672 47.3945 23.2344 45.6484 22.4102C44.7383 21.9766 43.9492 21.6055 43.6641 21.0273C43.6211 20.4648 43.625 20.0117 43.6289 19.4961V19.418C44.1289 18.8359 44.5508 17.8867 44.75 17.0273C45.1914 16.7227 45.6523 16.1211 45.8008 14.9141C45.8711 14.3008 45.7305 13.8047 45.5039 13.4336C45.8477 12.1797 46.3906 9.44922 45.2461 7.60938C44.7461 6.80078 43.9766 6.26172 43.0039 6.03125C42.3828 5.35156 41.3164 4.98438 39.9336 4.98438H39.9297C37.7852 5.02344 36.2031 5.69531 35.2266 6.98047C34.1172 8.44531 33.8789 10.6016 34.5156 13.4023C34.2773 13.7773 34.125 14.2891 34.1992 14.918C34.3477 16.1289 34.8125 16.7305 35.2539 17.0312C35.4609 17.8828 35.8945 18.8359 36.4023 19.4219V19.5C36.4062 20.0117 36.4102 20.4648 36.3672 21.0234C36.2305 21.2734 35.9492 21.4961 35.5508 21.7109C34.6133 19.1641 32.4258 18.1562 30.7734 17.3945C29.793 16.9453 28.9414 16.5508 28.6641 16.0234C28.6211 15.4648 28.625 15.0156 28.6289 14.5L28.6328 14.418C29.1289 13.8359 29.5547 12.8906 29.7539 12.0273C30.1914 11.7266 30.6562 11.1211 30.8008 9.91406C30.875 9.30469 30.7344 8.80469 30.5078 8.43359C30.8477 7.17969 31.3906 4.44922 30.25 2.61328C29.7461 1.80469 28.9766 1.26172 28.0078 1.03125C27.5156 0.496094 26.6133 0 24.9336 0C22.7852 0.0429688 21.1992 0.710938 20.2266 1.99609C19.1172 3.45703 18.8828 5.60938 19.5195 8.40234C19.2812 8.77734 19.1289 9.28906 19.2031 9.91797C19.3477 11.1289 19.8125 11.7305 20.2578 12.0312C20.4609 12.8828 20.8984 13.8359 21.4023 14.4219V14.5039C21.4062 15.0195 21.4102 15.4688 21.3672 16.0234C21.0898 16.5508 20.2344 16.9453 19.25 17.3945C17.5898 18.1562 15.3945 19.1641 14.4531 21.7109C14.0547 21.4961 13.7695 21.2734 13.6367 21.0234C13.5938 20.4609 13.5977 20.0078 13.6016 19.4883V19.4219C14.1055 18.8359 14.543 17.8828 14.7461 17.0312C15.1875 16.7266 15.6523 16.125 15.8008 14.9141C15.875 14.2852 15.7227 13.7734 15.4844 13.3984C16.1211 10.6016 15.8828 8.44141 14.7734 6.98047C13.7969 5.69531 12.2148 5.02344 10.0508 4.98438C8.67969 4.98438 7.61719 5.35156 6.99609 6.03125C6.02344 6.26172 5.25391 6.80469 4.75 7.61328C3.60938 9.44922 4.15234 12.1797 4.49609 13.4336C4.26953 13.8047 4.12891 14.3047 4.19922 14.918C4.34766 16.125 4.80859 16.7266 5.25 17.0312C5.44922 17.8906 5.87109 18.8359 6.37109 19.418V19.5C6.375 20.0156 6.37891 20.4688 6.33594 21.0312C6.05078 21.6055 5.25781 21.9805 4.35156 22.4102C2.60547 23.2344 0.214844 24.3672 0 27.9844V38.9844C0 39.0508 0.0078125 39.1172 0.0195313 39.1836C0.078125 39.4766 1.54688 46 11.5234 49.2734C11.5234 49.2734 11.6875 49.418 12.9805 49.5703C12.9766 49.1289 12.9766 48.3945 13.0156 47.668C13.3906 44.0156 16.332 42.8242 18.4961 41.9453C19.6758 41.4688 20.7891 41.0156 21.1211 40.3672C21.1719 39.75 21.1641 39.25 21.1602 38.6836V38.5703C20.6055 37.9414 20.1211 36.8828 19.9023 35.9453C19.4336 35.6367 18.9258 35 18.7695 33.6875C18.6875 33.0117 18.8594 32.4648 19.1172 32.0703C18.418 29.0352 18.668 26.6992 19.8672 25.1211C20.9102 23.7461 22.6094 23.0234 24.9141 22.9844C26.4102 22.9844 27.5508 23.3789 28.207 24.1133C29.2539 24.3555 30.0859 24.9336 30.6211 25.7969C31.8555 27.7852 31.25 30.7656 30.8789 32.1016C31.1289 32.4961 31.2891 33.0312 31.2109 33.6914C31.0508 35 30.5469 35.6367 30.0742 35.9453C29.8594 36.8828 29.3906 37.9375 28.8477 38.5625L28.8438 38.6836C28.8398 39.25 28.8359 39.7461 28.8828 40.3672C29.2188 41.0195 30.3281 41.4727 31.5 41.9453C33.668 42.8281 36.6172 44.0273 36.9688 47.668C37.0117 48.1992 37 49.207 36.9922 49.6445C37.9336 49.5391 37.9922 49.4453 37.9922 49.4453C48.4258 46.2266 49.918 39.4883 49.9805 39.1836C49.9922 39.1172 50 39.0508 50 38.9844L49.9961 27.9258Z"
         fill="url(#paint0_linear_177_1811)" />
      <defs>
         <linearGradient id="paint0_linear_177_1811" x1="56.4103" y1="1.41971e-06" x2="0.332164" y2="50.0389"
            gradientUnits="userSpaceOnUse">
            <stop offset="0.25" stop-color="#3B768F" />
            <stop offset="0.536458" stop-color="#3EC6FF" />
            <stop offset="0.817708" stop-color="#3B768F" />
         </linearGradient>
      </defs>
   </symbol>
   <symbol id="buildings" viewBox="0 0 44 44" fill="none">
      <path
         d="M16 0V1H12V44H16V43H17V44H18V43H19V44H20V43H21V44H22V43H23V44H24V43H25V44H26V43H27V44H31V1H27V0H16ZM10 4.16797L0 8.33203V44H4V42H5V44H6V42H7V44H8V42H9V44H10V4.16797ZM16 5H17V6H16V5ZM18 5H19V6H18V5ZM20 5H21V6H20V5ZM22 5H23V6H22V5ZM24 5H25V6H24V5ZM26 5H27V6H26V5ZM16 7H17V8H16V7ZM18 7H19V8H18V7ZM20 7H21V8H20V7ZM22 7H23V8H22V7ZM24 7H25V8H24V7ZM26 7H27V8H26V7ZM9 8.73438V11H8V9.12109L9 8.73438ZM16 9H17V10H16V9ZM18 9H19V10H18V9ZM20 9H21V10H20V9ZM22 9H23V10H22V9ZM24 9H25V10H24V9ZM26 9H27V10H26V9ZM33 9V13H34V14H33V15H34V16H33V17H34V18H33V19H34V20H33V21H34V22H33V23H34V24H33V25H34V26H33V27H34V28H33V29H34V30H33V31H34V32H33V33H34V34H33V35H34V36H33V37H34V38H33V39H34V40H33V41H34V42H33V43H34V44H35V43H37V44H38V43H40V44H44V9H33ZM7 9.5V11H6V9.88672L7 9.5ZM5 10.2656V11H4V10.6523L5 10.2656ZM16 11H17V12H16V11ZM18 11H19V12H18V11ZM20 11H21V12H20V11ZM22 11H23V12H22V11ZM24 11H25V12H24V11ZM26 11H27V12H26V11ZM4 12H5V14H4V12ZM6 12H7V14H6V12ZM8 12H9V14H8V12ZM16 13H17V14H16V13ZM18 13H19V14H18V13ZM20 13H21V14H20V13ZM22 13H23V14H22V13ZM24 13H25V14H24V13ZM26 13H27V14H26V13ZM35 13H37V14H35V13ZM38 13H40V14H38V13ZM4 15H5V17H4V15ZM6 15H7V17H6V15ZM8 15H9V17H8V15ZM16 15H17V16H16V15ZM18 15H19V16H18V15ZM20 15H21V16H20V15ZM22 15H23V16H22V15ZM24 15H25V16H24V15ZM26 15H27V16H26V15ZM35 15H37V16H35V15ZM38 15H40V16H38V15ZM16 17H17V18H16V17ZM18 17H19V18H18V17ZM20 17H21V18H20V17ZM22 17H23V18H22V17ZM24 17H25V18H24V17ZM26 17H27V18H26V17ZM35 17H37V18H35V17ZM38 17H40V18H38V17ZM4 18H5V20H4V18ZM6 18H7V20H6V18ZM8 18H9V20H8V18ZM16 19H17V20H16V19ZM18 19H19V20H18V19ZM20 19H21V20H20V19ZM22 19H23V20H22V19ZM24 19H25V20H24V19ZM26 19H27V20H26V19ZM35 19H37V20H35V19ZM38 19H40V20H38V19ZM4 21H5V23H4V21ZM6 21H7V23H6V21ZM8 21H9V23H8V21ZM16 21H17V22H16V21ZM18 21H19V22H18V21ZM20 21H21V22H20V21ZM22 21H23V22H22V21ZM24 21H25V22H24V21ZM26 21H27V22H26V21ZM35 21H37V22H35V21ZM38 21H40V22H38V21ZM16 23H17V24H16V23ZM18 23H19V24H18V23ZM20 23H21V24H20V23ZM22 23H23V24H22V23ZM24 23H25V24H24V23ZM26 23H27V24H26V23ZM35 23H37V24H35V23ZM38 23H40V24H38V23ZM4 24H5V26H4V24ZM6 24H7V26H6V24ZM8 24H9V26H8V24ZM16 25H17V26H16V25ZM18 25H19V26H18V25ZM20 25H21V26H20V25ZM22 25H23V26H22V25ZM24 25H25V26H24V25ZM26 25H27V26H26V25ZM35 25H37V26H35V25ZM38 25H40V26H38V25ZM4 27H5V29H4V27ZM6 27H7V29H6V27ZM8 27H9V29H8V27ZM16 27H17V28H16V27ZM18 27H19V28H18V27ZM20 27H21V28H20V27ZM22 27H23V28H22V27ZM24 27H25V28H24V27ZM26 27H27V28H26V27ZM35 27H37V28H35V27ZM38 27H40V28H38V27ZM16 29H17V30H16V29ZM18 29H19V30H18V29ZM20 29H21V30H20V29ZM22 29H23V30H22V29ZM24 29H25V30H24V29ZM26 29H27V30H26V29ZM35 29H37V30H35V29ZM38 29H40V30H38V29ZM4 30H5V32H4V30ZM6 30H7V32H6V30ZM8 30H9V32H8V30ZM16 31H17V32H16V31ZM18 31H19V32H18V31ZM20 31H21V32H20V31ZM22 31H23V32H22V31ZM24 31H25V32H24V31ZM26 31H27V32H26V31ZM35 31H37V32H35V31ZM38 31H40V32H38V31ZM4 33H5V35H4V33ZM6 33H7V35H6V33ZM8 33H9V35H8V33ZM16 33H17V34H16V33ZM18 33H19V34H18V33ZM20 33H21V34H20V33ZM22 33H23V34H22V33ZM24 33H25V34H24V33ZM26 33H27V34H26V33ZM35 33H37V34H35V33ZM38 33H40V34H38V33ZM16 35H17V36H16V35ZM18 35H19V36H18V35ZM20 35H21V36H20V35ZM22 35H23V36H22V35ZM24 35H25V36H24V35ZM26 35H27V36H26V35ZM35 35H37V36H35V35ZM38 35H40V36H38V35ZM4 36H5V38H4V36ZM6 36H7V38H6V36ZM8 36H9V38H8V36ZM16 37H17V38H16V37ZM18 37H19V38H18V37ZM20 37H21V38H20V37ZM22 37H23V38H22V37ZM24 37H25V38H24V37ZM26 37H27V38H26V37ZM35 37H37V38H35V37ZM38 37H40V38H38V37ZM4 39H5V41H4V39ZM6 39H7V41H6V39ZM8 39H9V41H8V39ZM16 39H17V40H16V39ZM18 39H19V40H18V39ZM20 39H21V40H20V39ZM22 39H23V40H22V39ZM24 39H25V40H24V39ZM26 39H27V40H26V39ZM35 39H37V40H35V39ZM38 39H40V40H38V39ZM16 41H17V42H16V41ZM18 41H19V42H18V41ZM20 41H21V42H20V41ZM22 41H23V42H22V41ZM24 41H25V42H24V41ZM26 41H27V42H26V41ZM35 41H37V42H35V41ZM38 41H40V42H38V41Z"
         fill="url(#paint0_linear_177_1817)" />
      <defs>
         <linearGradient id="paint0_linear_177_1817" x1="49.641" y1="1.25829e-06" x2="-0.0195832" y2="43.9975"
            gradientUnits="userSpaceOnUse">
            <stop offset="0.25" stop-color="#3B768F" />
            <stop offset="0.536458" stop-color="#3EC6FF" />
            <stop offset="0.817708" stop-color="#3B768F" />
         </linearGradient>
      </defs>
   </symbol>
</svg>